HIERARCHY
ROOT mixamorig:Hips
{
	OFFSET 0.000000 104.274902 0.000000
	CHANNELS 6 Xposition Yposition Zposition Xrotation Yrotation Zrotation
	JOINT mixamorig:Spine
	{
		OFFSET 0.000000 10.181549 0.131524
		CHANNELS 6 Xposition Yposition Zposition Xrotation Yrotation Zrotation
		JOINT mixamorig:Spine1
		{
			OFFSET 0.000000 9.893990 -1.470706
			CHANNELS 3 Xrotation Yrotation Zrotation
			JOINT mixamorig:Spine2
			{
				OFFSET 0.000000 9.220787 -1.370637
				CHANNELS 3 Xrotation Yrotation Zrotation
				JOINT mixamorig:Neck
				{
					OFFSET 0.000000 16.740372 -2.049022
					CHANNELS 6 Xposition Yposition Zposition Xrotation Yrotation Zrotation
					JOINT mixamorig:Head
					{
						OFFSET 0.000000 9.617859 1.684976
						CHANNELS 6 Xposition Yposition Zposition Xrotation Yrotation Zrotation
						JOINT mixamorig:HeadTop_End
						{
							OFFSET 0.000000 22.037384 7.501072
							CHANNELS 6 Xposition Yposition Zposition Xrotation Yrotation Zrotation
							End Site
							{
								OFFSET 0.000000 23.106567 -2.828246
							}
						}
					}
				}
				JOINT mixamorig:RightShoulder
				{
					OFFSET -4.570000 11.014877 -2.160840
					CHANNELS 6 Xposition Yposition Zposition Xrotation Yrotation Zrotation
					JOINT mixamorig:RightArm
					{
						OFFSET -10.592867 -0.524796 -2.232105
						CHANNELS 3 Xrotation Yrotation Zrotation
						JOINT mixamorig:RightForeArm
						{
							OFFSET -27.841497 0.000000 -0.000002
							CHANNELS 3 Xrotation Yrotation Zrotation
							JOINT mixamorig:RightHand
							{
								OFFSET -28.328812 0.000000 -0.000001
								CHANNELS 3 Xrotation Yrotation Zrotation
								JOINT mixamorig:RightHandThumb1
								{
									OFFSET -2.464798 -1.573990 2.681911
									CHANNELS 6 Xposition Yposition Zposition Xrotation Yrotation Zrotation
									JOINT mixamorig:RightHandThumb2
									{
										OFFSET -3.244781 -1.873383 1.873376
										CHANNELS 3 Xrotation Yrotation Zrotation
										JOINT mixamorig:RightHandThumb3
										{
											OFFSET -2.646263 -1.527817 1.527818
											CHANNELS 6 Xposition Yposition Zposition Xrotation Yrotation Zrotation
											JOINT mixamorig:RightHandThumb4
											{
												OFFSET -1.994591 -1.151581 1.151575
												CHANNELS 6 Xposition Yposition Zposition Xrotation Yrotation Zrotation
												End Site
												{
													OFFSET -1.860176 -1.142715 1.365483
												}
											}
										}
									}
								}
								JOINT mixamorig:RightHandIndex1
								{
									OFFSET -9.108299 -0.517883 2.259803
									CHANNELS 6 Xposition Yposition Zposition Xrotation Yrotation Zrotation
									JOINT mixamorig:RightHandIndex2
									{
										OFFSET -3.699997 0.000000 0.000000
										CHANNELS 3 Xrotation Yrotation Zrotation
										JOINT mixamorig:RightHandIndex3
										{
											OFFSET -2.850006 0.000000 0.000000
											CHANNELS 3 Xrotation Yrotation Zrotation
											JOINT mixamorig:RightHandIndex4
											{
												OFFSET -2.772194 0.000000 0.000000
												CHANNELS 3 Xrotation Yrotation Zrotation
												End Site
												{
													OFFSET -2.772202 0.000000 -0.000484
												}
											}
										}
									}
								}
								JOINT mixamorig:RightHandMiddle1
								{
									OFFSET -9.532501 0.000000 -0.000000
									CHANNELS 6 Xposition Yposition Zposition Xrotation Yrotation Zrotation
									JOINT mixamorig:RightHandMiddle2
									{
										OFFSET -3.699997 0.000000 0.000000
										CHANNELS 3 Xrotation Yrotation Zrotation
										JOINT mixamorig:RightHandMiddle3
										{
											OFFSET -2.949997 0.000000 0.000000
											CHANNELS 3 Xrotation Yrotation Zrotation
											JOINT mixamorig:RightHandMiddle4
											{
												OFFSET -2.946594 0.000000 0.000000
												CHANNELS 3 Xrotation Yrotation Zrotation
												End Site
												{
													OFFSET -2.946602 0.000000 -0.000982
												}
											}
										}
									}
								}
								JOINT mixamorig:RightHandRing1
								{
									OFFSET -9.103600 -0.043106 -1.865100
									CHANNELS 6 Xposition Yposition Zposition Xrotation Yrotation Zrotation
									JOINT mixamorig:RightHandRing2
									{
										OFFSET -3.379303 0.000000 0.000000
										CHANNELS 3 Xrotation Yrotation Zrotation
										JOINT mixamorig:RightHandRing3
										{
											OFFSET -2.889694 0.000000 0.000000
											CHANNELS 3 Xrotation Yrotation Zrotation
											JOINT mixamorig:RightHandRing4
											{
												OFFSET -2.638802 0.000000 0.000000
												CHANNELS 3 Xrotation Yrotation Zrotation
												End Site
												{
													OFFSET -2.638802 0.000000 0.004218
												}
											}
										}
									}
								}
								JOINT mixamorig:RightHandPinky1
								{
									OFFSET -8.076698 -0.486725 -3.806299
									CHANNELS 6 Xposition Yposition Zposition Xrotation Yrotation Zrotation
									JOINT mixamorig:RightHandPinky2
									{
										OFFSET -3.600006 0.000000 0.000000
										CHANNELS 3 Xrotation Yrotation Zrotation
										JOINT mixamorig:RightHandPinky3
										{
											OFFSET -2.099998 0.000000 0.000000
											CHANNELS 3 Xrotation Yrotation Zrotation
											JOINT mixamorig:RightHandPinky4
											{
												OFFSET -2.115791 0.000000 0.000000
												CHANNELS 3 Xrotation Yrotation Zrotation
												End Site
												{
													OFFSET -2.115799 0.000000 0.000174
												}
											}
										}
									}
								}
							}
						}
					}
				}
				JOINT mixamorig:LeftShoulder
				{
					OFFSET 4.570400 11.014679 -2.160816
					CHANNELS 6 Xposition Yposition Zposition Xrotation Yrotation Zrotation
					JOINT mixamorig:LeftArm
					{
						OFFSET 10.592373 -0.524597 -2.232116
						CHANNELS 3 Xrotation Yrotation Zrotation
						JOINT mixamorig:LeftForeArm
						{
							OFFSET 27.841488 0.000000 0.000001
							CHANNELS 3 Xrotation Yrotation Zrotation
							JOINT mixamorig:LeftHand
							{
								OFFSET 28.328808 0.000000 -0.000000
								CHANNELS 3 Xrotation Yrotation Zrotation
								JOINT mixamorig:LeftHandThumb1
								{
									OFFSET 2.466103 -1.576202 2.681698
									CHANNELS 6 Xposition Yposition Zposition Xrotation Yrotation Zrotation
									JOINT mixamorig:LeftHandThumb2
									{
										OFFSET 3.243317 -1.872528 1.872530
										CHANNELS 3 Xrotation Yrotation Zrotation
										JOINT mixamorig:LeftHandThumb3
										{
											OFFSET 2.647881 -1.528763 1.528754
											CHANNELS 6 Xposition Yposition Zposition Xrotation Yrotation Zrotation
											JOINT mixamorig:LeftHandThumb4
											{
												OFFSET 1.998924 -1.154083 1.154080
												CHANNELS 6 Xposition Yposition Zposition Xrotation Yrotation Zrotation
												End Site
												{
													OFFSET 1.884041 -1.149155 1.337651
												}
											}
										}
									}
								}
								JOINT mixamorig:LeftHandIndex1
								{
									OFFSET 9.109299 -0.518005 2.259900
									CHANNELS 6 Xposition Yposition Zposition Xrotation Yrotation Zrotation
									JOINT mixamorig:LeftHandIndex2
									{
										OFFSET 3.699997 0.000000 0.000000
										CHANNELS 3 Xrotation Yrotation Zrotation
										JOINT mixamorig:LeftHandIndex3
										{
											OFFSET 2.850006 0.000000 0.000000
											CHANNELS 3 Xrotation Yrotation Zrotation
											JOINT mixamorig:LeftHandIndex4
											{
												OFFSET 2.774895 0.000000 0.000000
												CHANNELS 3 Xrotation Yrotation Zrotation
												End Site
												{
													OFFSET 2.774902 0.000000 -0.000072
												}
											}
										}
									}
								}
								JOINT mixamorig:LeftHandMiddle1
								{
									OFFSET 9.533401 0.000000 0.000000
									CHANNELS 6 Xposition Yposition Zposition Xrotation Yrotation Zrotation
									JOINT mixamorig:LeftHandMiddle2
									{
										OFFSET 3.699997 0.000000 0.000000
										CHANNELS 3 Xrotation Yrotation Zrotation
										JOINT mixamorig:LeftHandMiddle3
										{
											OFFSET 2.949997 0.000000 0.000000
											CHANNELS 3 Xrotation Yrotation Zrotation
											JOINT mixamorig:LeftHandMiddle4
											{
												OFFSET 2.952896 0.000000 0.000000
												CHANNELS 3 Xrotation Yrotation Zrotation
												End Site
												{
													OFFSET 2.952904 0.000000 0.000165
												}
											}
										}
									}
								}
								JOINT mixamorig:LeftHandRing1
								{
									OFFSET 9.104500 -0.042999 -1.865101
									CHANNELS 6 Xposition Yposition Zposition Xrotation Yrotation Zrotation
									JOINT mixamorig:LeftHandRing2
									{
										OFFSET 3.149994 0.000000 0.000000
										CHANNELS 3 Xrotation Yrotation Zrotation
										JOINT mixamorig:LeftHandRing3
										{
											OFFSET 2.950005 0.000000 0.000000
											CHANNELS 3 Xrotation Yrotation Zrotation
											JOINT mixamorig:LeftHandRing4
											{
												OFFSET 2.644302 0.000000 0.000000
												CHANNELS 3 Xrotation Yrotation Zrotation
												End Site
												{
													OFFSET 2.644302 0.000000 0.000083
												}
											}
										}
									}
								}
								JOINT mixamorig:LeftHandPinky1
								{
									OFFSET 8.077805 -0.486893 -3.806302
									CHANNELS 6 Xposition Yposition Zposition Xrotation Yrotation Zrotation
									JOINT mixamorig:LeftHandPinky2
									{
										OFFSET 3.600006 0.000000 0.000000
										CHANNELS 3 Xrotation Yrotation Zrotation
										JOINT mixamorig:LeftHandPinky3
										{
											OFFSET 2.099998 0.000000 0.000000
											CHANNELS 3 Xrotation Yrotation Zrotation
											JOINT mixamorig:LeftHandPinky4
											{
												OFFSET 2.125496 0.000000 0.000000
												CHANNELS 3 Xrotation Yrotation Zrotation
												End Site
												{
													OFFSET 2.125504 0.000000 -0.001254
												}
											}
										}
									}
								}
							}
						}
					}
				}
			}
		}
	}
	JOINT mixamorig:RightUpLeg
	{
		OFFSET -8.207800 -6.751701 -1.599544
		CHANNELS 6 Xposition Yposition Zposition Xrotation Yrotation Zrotation
		JOINT mixamorig:RightLeg
		{
			OFFSET 0.000004 -44.370152 0.345934
			CHANNELS 3 Xrotation Yrotation Zrotation
			JOINT mixamorig:RightFoot
			{
				OFFSET 0.000004 -44.423664 -3.043535
				CHANNELS 3 Xrotation Yrotation Zrotation
				JOINT mixamorig:RightToeBase
				{
					OFFSET 0.000001 -8.728691 10.710592
					CHANNELS 3 Xrotation Yrotation Zrotation
					JOINT mixamorig:RightToe_End
					{
						OFFSET 0.000000 -0.000665 9.278101
						CHANNELS 3 Xrotation Yrotation Zrotation
						End Site
						{
							OFFSET 0.000000 -0.000665 9.278103
						}
					}
				}
			}
		}
	}
	JOINT mixamorig:LeftUpLeg
	{
		OFFSET 8.207800 -6.751701 -1.599544
		CHANNELS 6 Xposition Yposition Zposition Xrotation Yrotation Zrotation
		JOINT mixamorig:LeftLeg
		{
			OFFSET 0.000004 -44.370037 0.346940
			CHANNELS 3 Xrotation Yrotation Zrotation
			JOINT mixamorig:LeftFoot
			{
				OFFSET 0.000004 -44.423611 -3.044388
				CHANNELS 3 Xrotation Yrotation Zrotation
				JOINT mixamorig:LeftToeBase
				{
					OFFSET 0.000001 -8.728690 10.710592
					CHANNELS 3 Xrotation Yrotation Zrotation
					JOINT mixamorig:LeftToe_End
					{
						OFFSET 0.000000 -0.000680 9.278101
						CHANNELS 3 Xrotation Yrotation Zrotation
						End Site
						{
							OFFSET 0.000000 -0.000680 9.278101
						}
					}
				}
			}
		}
	}
}
MOTION
Frames: 4
Frame Time: 0.033333
0.874650 101.620964 1.413609 -1.067320 1.213460 -5.239927 0.000001 10.181539 0.131523 1.294417 -1.130346 2.917622 0.725519 0.272986 5.836637 0.707960 0.780241 5.745792 0.000002 16.740385 -2.049019 1.025728 -0.287800 -2.142652 -0.000004 9.617855 1.684974 1.459829 0.668728 -8.183188 0.000001 22.037354 7.501074 -0.000000 -0.000000 -0.000000 -4.570001 11.014867 -2.160839 4.509521 3.317791 5.485428 -1.269082 0.669496 67.302731 -0.000023 17.671412 0.000045 -9.189783 -9.275955 11.070263 -2.464786 -1.573985 2.681909 18.358611 0.399097 -10.893995 1.308554 -32.642434 3.061794 -2.646260 -1.527812 1.527819 1.963871 -8.441584 1.154607 -1.994576 -1.151584 1.151568 0.000001 -0.000001 0.000003 -9.108285 -0.517878 2.259803 0.339858 -4.673481 7.865508 0.397641 -2.851596 20.863170 -0.193128 -0.216343 13.843936 -0.000000 -0.000000 0.000002 -9.532491 0.000015 0.000000 0.920690 -8.781067 15.977581 0.927744 -4.004779 33.562566 0.216470 -1.688825 15.898051 0.000001 -0.000000 0.000001 -9.103588 -0.043104 -1.865101 2.570827 -11.679585 27.056533 1.727134 -3.902683 40.445218 -0.157966 0.035278 17.815346 0.000000 0.000000 -0.000000 -8.076696 -0.486716 -3.806300 5.587474 -16.043682 37.126644 1.398390 -4.100318 45.944794 -0.727740 -0.247567 22.122730 -0.000002 -0.000001 0.000001 4.570399 11.014664 -2.160814 3.584482 -13.747999 -5.031219 3.965595 3.505174 -83.735367 -0.000010 -14.487601 0.000008 -27.333002 3.711976 -9.426637 2.466095 -1.576207 2.681699 18.491376 -0.461333 10.916048 1.284020 32.757615 -3.088997 2.647870 -1.528758 1.528757 2.117150 9.311157 -0.358628 1.998917 -1.154082 1.154079 0.000000 0.000006 0.000003 9.109285 -0.518020 2.259900 0.339552 4.671366 -7.844294 0.387015 2.823615 -20.566210 0.034612 0.816851 -10.169812 0.000003 0.000002 -0.000003 9.533383 0.000002 0.000000 0.912571 8.769289 -15.831730 0.919044 3.991189 -33.400431 0.170549 1.488898 -12.264405 -0.000001 -0.000000 0.000000 9.104494 -0.042987 -1.865101 2.555789 11.673078 -26.909188 1.710617 3.886851 -40.215443 0.544830 1.835104 -19.344141 0.000001 -0.000001 -0.000000 8.077787 -0.486892 -3.806305 5.576037 16.029235 -36.940610 1.378648 4.077726 -45.645611 0.486563 2.853432 -20.524727 -0.000002 -0.000001 0.000001 -8.207800 -6.751722 -1.599544 -1.976657 -4.967608 10.132738 13.317546 -5.041403 3.220307 -10.120366 1.306218 -7.428345 -0.493904 -0.000001 -0.000002 -0.000000 0.000000 0.000000 8.207800 -6.751704 -1.599543 -19.457146 10.885923 15.619760 22.340753 9.563709 2.315877 -1.673869 3.668339 -8.578735 -0.472750 0.000001 0.000001 0.000000 -0.000001 0.000000 
0.583344 101.627914 1.517901 -0.939205 1.480911 -5.327690 0.000001 10.181533 0.131523 1.296945 -1.179596 2.990583 0.727859 0.266556 5.915874 0.710008 0.781178 5.823675 0.000002 16.740381 -2.049023 1.039995 -0.300283 -2.158135 0.000000 9.617838 1.684979 1.551098 0.577095 -8.151358 -0.000000 22.037384 7.501072 -0.000000 -0.000000 0.000000 -4.570000 11.014873 -2.160841 4.508457 3.322989 5.475545 -1.233403 0.660740 67.333023 -0.000004 17.718339 0.000042 -10.649541 -9.172073 10.389998 -2.464785 -1.573996 2.681912 18.456623 0.445170 -10.910309 1.290435 -32.727517 3.081939 -2.646258 -1.527810 1.527811 1.997024 -8.433378 1.125119 -1.994583 -1.151585 1.151572 0.000003 -0.000003 0.000003 -9.108299 -0.517888 2.259804 0.339629 -4.671910 7.849842 0.389792 -2.830900 20.643760 -0.193128 -0.216343 13.843939 0.000000 0.000000 0.000001 -9.532487 0.000012 0.000000 0.914685 -8.772349 15.869842 0.921337 -3.994701 33.442761 0.216469 -1.688826 15.898049 0.000000 0.000000 0.000001 -9.103598 -0.043107 -1.865102 2.559726 -11.674749 26.947682 1.714940 -3.890941 40.275457 -0.157966 0.035278 17.815350 -0.000001 -0.000000 -0.000000 -8.076697 -0.486717 -3.806299 5.579045 -16.032961 36.989207 1.383811 -4.083570 45.723745 -0.727745 -0.247560 22.122744 0.000001 -0.000000 -0.000000 4.570405 11.014714 -2.160818 3.582969 -13.759606 -5.040610 4.014811 3.511308 -83.693976 -0.000012 -14.501740 -0.000002 -27.521197 3.700997 -9.418133 2.466083 -1.576207 2.681698 18.491369 -0.461328 10.916055 1.284023 32.757611 -3.089004 2.647887 -1.528753 1.528749 2.117149 9.311168 -0.358632 1.998928 -1.154087 1.154084 0.000003 -0.000002 0.000002 9.109282 -0.518007 2.259899 0.339542 4.671366 -7.844272 0.387025 2.823612 -20.566195 0.034598 0.816847 -10.169813 0.000000 -0.000001 -0.000003 9.533406 -0.000003 -0.000001 0.912550 8.769293 -15.831704 0.919045 3.991189 -33.400407 0.170554 1.488900 -12.264407 0.000000 -0.000001 0.000000 9.104506 -0.042993 -1.865103 2.555773 11.673072 -26.909158 1.710628 3.886863 -40.215474 0.544826 1.835100 -19.344137 -0.000000 -0.000002 -0.000000 8.077813 -0.486897 -3.806306 5.576030 16.029240 -36.940624 1.378654 4.077731 -45.645611 0.486565 2.853419 -20.524720 0.000000 -0.000001 -0.000001 -8.207795 -6.751731 -1.599544 -1.706381 -4.968131 10.442651 12.684671 -5.072805 3.255287 -9.921933 1.089485 -7.669036 -0.533926 -0.000003 0.000001 0.000000 0.000001 0.000000 8.207797 -6.751722 -1.599545 -19.541668 10.828418 15.855495 22.146132 9.515612 2.332776 -1.546386 3.435505 -8.729255 -0.453495 0.000004 -0.000001 0.000000 0.000002 0.000000 
0.478678 101.630455 1.555310 -0.893322 1.577723 -5.359584 0.000001 10.181545 0.131524 1.298048 -1.197519 3.017270 0.728744 0.264195 5.944687 0.710787 0.781492 5.852000 0.000002 16.740410 -2.049021 1.045307 -0.304693 -2.163986 -0.000002 9.617852 1.684974 1.584931 0.544179 -8.140495 -0.000001 22.037384 7.501071 -0.000000 0.000000 -0.000000 -4.569998 11.014907 -2.160842 4.508132 3.324373 5.471578 -1.219689 0.655841 67.345440 -0.000006 17.736789 0.000013 -11.193107 -9.123285 10.139285 -2.464787 -1.573989 2.681910 18.491281 0.461457 -10.916089 1.284010 -32.757601 3.089011 -2.646275 -1.527825 1.527816 2.008723 -8.430467 1.114695 -1.994574 -1.151587 1.151569 0.000001 0.000002 -0.000004 -9.108283 -0.517884 2.259803 0.339561 -4.671354 7.844283 0.387034 -2.823579 20.566266 -0.193128 -0.216342 13.843933 0.000000 -0.000000 0.000002 -9.532483 -0.000005 -0.000000 0.912580 -8.769266 15.831752 0.919077 -3.991131 33.400428 0.216469 -1.688826 15.898052 0.000001 -0.000000 0.000000 -9.103582 -0.043107 -1.865099 2.555824 -11.673031 26.909199 1.710645 -3.886780 40.215471 -0.157965 0.035279 17.815350 0.000000 -0.000000 -0.000000 -8.076680 -0.486711 -3.806302 5.576079 -16.029180 36.940651 1.378683 -4.077631 45.645615 -0.727746 -0.247555 22.122742 0.000001 0.000000 0.000001 4.570405 11.014690 -2.160817 3.582351 -13.764054 -5.044501 4.032793 3.514257 -83.678348 -0.000014 -14.506748 0.000011 -27.592612 3.698771 -9.416202 2.466095 -1.576203 2.681700 18.491366 -0.461333 10.916055 1.284033 32.757608 -3.089012 2.647889 -1.528767 1.528750 2.117140 9.311169 -0.358623 1.998929 -1.154069 1.154079 0.000002 0.000003 -0.000002 9.109287 -0.518017 2.259900 0.339559 4.671359 -7.844261 0.386994 2.823612 -20.566220 0.034620 0.816853 -10.169814 0.000000 -0.000000 -0.000000 9.533396 -0.000003 0.000000 0.912552 8.769288 -15.831718 0.919034 3.991191 -33.400383 0.170563 1.488906 -12.264412 -0.000000 -0.000003 0.000003 9.104482 -0.043007 -1.865104 2.555785 11.673083 -26.909188 1.710616 3.886855 -40.215464 0.544834 1.835101 -19.344139 -0.000001 -0.000001 -0.000000 8.077787 -0.486902 -3.806300 5.576023 16.029238 -36.940597 1.378658 4.077733 -45.645628 0.486560 2.853424 -20.524720 -0.000000 0.000000 0.000000 -8.207799 -6.751712 -1.599544 -1.604566 -4.967051 10.554422 12.447637 -5.083516 3.268301 -9.846311 1.010027 -7.756462 -0.548658 -0.000001 0.000002 -0.000000 0.000000 0.000000 8.207802 -6.751710 -1.599546 -19.571484 10.808261 15.940043 22.074548 9.497741 2.339101 -1.499934 3.351782 -8.783168 -0.446323 -0.000002 -0.000003 -0.000000 0.000000 0.000000 
0.478678 101.630455 1.555310 -0.893322 1.577723 -5.359584 0.000001 10.181545 0.131524 1.298048 -1.197519 3.017270 0.728744 0.264195 5.944687 0.710787 0.781492 5.852000 0.000002 16.740410 -2.049021 1.045307 -0.304693 -2.163986 -0.000002 9.617852 1.684974 1.584931 0.544179 -8.140495 -0.000001 22.037384 7.501071 -0.000000 0.000000 -0.000000 -4.569998 11.014907 -2.160842 4.508132 3.324373 5.471578 -1.219689 0.655841 67.345440 -0.000006 17.736789 0.000013 -11.193107 -9.123285 10.139285 -2.464787 -1.573989 2.681910 18.491281 0.461457 -10.916089 1.284010 -32.757601 3.089011 -2.646275 -1.527825 1.527816 2.008723 -8.430467 1.114695 -1.994574 -1.151587 1.151569 0.000001 0.000002 -0.000004 -9.108283 -0.517884 2.259803 0.339561 -4.671354 7.844283 0.387034 -2.823579 20.566266 -0.193128 -0.216342 13.843933 0.000000 -0.000000 0.000002 -9.532483 -0.000005 -0.000000 0.912580 -8.769266 15.831752 0.919077 -3.991131 33.400428 0.216469 -1.688826 15.898052 0.000001 -0.000000 0.000000 -9.103582 -0.043107 -1.865099 2.555824 -11.673031 26.909199 1.710645 -3.886780 40.215471 -0.157965 0.035279 17.815350 0.000000 -0.000000 -0.000000 -8.076680 -0.486711 -3.806302 5.576079 -16.029180 36.940651 1.378683 -4.077631 45.645615 -0.727746 -0.247555 22.122742 0.000001 0.000000 0.000001 4.570405 11.014690 -2.160817 3.582351 -13.764054 -5.044501 4.032793 3.514257 -83.678348 -0.000014 -14.506748 0.000011 -27.592612 3.698771 -9.416202 2.466095 -1.576203 2.681700 18.491366 -0.461333 10.916055 1.284033 32.757608 -3.089012 2.647889 -1.528767 1.528750 2.117140 9.311169 -0.358623 1.998929 -1.154069 1.154079 0.000002 0.000003 -0.000002 9.109287 -0.518017 2.259900 0.339559 4.671359 -7.844261 0.386994 2.823612 -20.566220 0.034620 0.816853 -10.169814 0.000000 -0.000000 -0.000000 9.533396 -0.000003 0.000000 0.912552 8.769288 -15.831718 0.919034 3.991191 -33.400383 0.170563 1.488906 -12.264412 -0.000000 -0.000003 0.000003 9.104482 -0.043007 -1.865104 2.555785 11.673083 -26.909188 1.710616 3.886855 -40.215464 0.544834 1.835101 -19.344139 -0.000001 -0.000001 -0.000000 8.077787 -0.486902 -3.806300 5.576023 16.029238 -36.940597 1.378658 4.077733 -45.645628 0.486560 2.853424 -20.524720 -0.000000 0.000000 0.000000 -8.207799 -6.751712 -1.599544 -1.604566 -4.967051 10.554422 12.447637 -5.083516 3.268301 -9.846311 1.010027 -7.756462 -0.548658 -0.000001 0.000002 -0.000000 0.000000 0.000000 8.207802 -6.751710 -1.599546 -19.571484 10.808261 15.940043 22.074548 9.497741 2.339101 -1.499934 3.351782 -8.783168 -0.446323 -0.000002 -0.000003 -0.000000 0.000000 0.000000 
